<svg xmlns="http://www.w3.org/2000/svg" viewBox="595 305 175 140" preserveAspectRatio="xMidYMid meet" aria-label="Consultus">
  <path fill="currentColor" d="M606.59,361.75v44.49c0,2.3,1.21,4.41,3.18,5.56l38.21,22.24c1.97,1.15,4.4,1.15,6.37,0l35.02-20.39c8.49-4.95,8.49-17.3,0-22.24c-3.94-2.3-8.8-2.3-12.74,0l-35.02,20.39c-4.25,2.47-9.55-0.62-9.55-5.56v-29.66c0-2.29,1.21-4.41,3.18-5.56l54.12-31.51c8.49-4.95,8.49-17.3,0-22.24c-3.94-2.3-8.8-2.3-12.74,0l-66.86,38.92C607.81,357.34,606.59,359.46,606.59,361.75z"/>
  <path fill="currentColor" d="M759.41,406.24v-44.49c0-2.3-1.21-4.41-3.18-5.56l-38.21-22.24c-1.97-1.15-4.4-1.15-6.37,0l-35.03,20.39c-8.49,4.95-8.49,17.3,0,22.24c3.94,2.3,8.8,2.3,12.74,0l35.02-20.39c4.25-2.47,9.55,0.62,9.55,5.56v29.66c0,2.29-1.21,4.41-3.18,5.56l-54.12,31.51c-8.49,4.95-8.49,17.3,0,22.24c3.94,2.3,8.8,2.3,12.74,0l66.86-38.92C758.19,410.65,759.41,408.54,759.41,406.24z"/>
</svg>
