<svg width="36" height="36" viewBox="0 0 36 36" fill="none" xmlns="http://www.w3.org/2000/svg">
<path d="M5.52008 7.78596C5.51989 7.68078 5.55089 7.5779 5.60916 7.49034C5.66743 7.40278 5.75036 7.33446 5.84746 7.29404C5.94456 7.25361 6.05146 7.24288 6.15466 7.26321C6.25785 7.28354 6.3527 7.33402 6.42721 7.40826C6.50172 7.48249 6.55254 7.57716 6.57324 7.68028C6.59395 7.7834 6.58361 7.89035 6.54353 7.98759C6.50345 8.08484 6.43544 8.16801 6.34809 8.2266C6.26074 8.28519 6.15797 8.31656 6.0528 8.31674C5.9119 8.31655 5.77681 8.26063 5.677 8.16118C5.5772 8.06174 5.52079 7.92685 5.52008 7.78596ZM7.8111 8.31674C7.91636 8.31694 8.01931 8.28589 8.10692 8.22754C8.19452 8.16918 8.26283 8.08614 8.30321 7.98893C8.34358 7.89171 8.35419 7.78471 8.33371 7.68146C8.31322 7.57821 8.26255 7.48337 8.18812 7.40894C8.11369 7.3345 8.01885 7.28384 7.9156 7.26335C7.81235 7.24286 7.70534 7.25348 7.60813 7.29385C7.51092 7.33422 7.42788 7.40254 7.36952 7.49014C7.31116 7.57774 7.28012 7.6807 7.28032 7.78596C7.28079 7.92654 7.33682 8.06123 7.43621 8.16066C7.53559 8.2601 7.67025 8.3162 7.81083 8.31674H7.8111ZM9.56921 8.31674C9.67446 8.31693 9.77741 8.28587 9.865 8.2275C9.9526 8.16914 10.0209 8.08609 10.0613 7.98888C10.1016 7.89167 10.1122 7.78466 10.0917 7.68142C10.0712 7.57818 10.0206 7.48334 9.94614 7.40891C9.8717 7.33449 9.77686 7.28383 9.67361 7.26335C9.57036 7.24286 9.46336 7.25348 9.36616 7.29386C9.26895 7.33423 9.18591 7.40255 9.12756 7.49015C9.0692 7.57775 9.03816 7.6807 9.03835 7.78596C9.03848 7.92666 9.09441 8.06156 9.19388 8.16107C9.29335 8.26058 9.42824 8.31657 9.56894 8.31674H9.56921ZM10.2586 28.2144C10.2586 28.3107 10.2324 28.4053 10.1828 28.4879C10.1333 28.5706 10.0621 28.6382 9.97707 28.6835L5.82821 30.8933C5.74726 30.9365 5.65653 30.9579 5.56484 30.9555C5.47315 30.9532 5.38364 30.9271 5.305 30.8799C5.22637 30.8327 5.1613 30.766 5.11612 30.6861C5.07095 30.6063 5.0472 30.5162 5.04721 30.4244V26.0067C5.0472 25.915 5.07095 25.8248 5.11612 25.745C5.1613 25.6652 5.22637 25.5984 5.305 25.5512C5.38364 25.504 5.47315 25.478 5.56484 25.4756C5.65653 25.4733 5.74726 25.4947 5.82821 25.5378L9.97647 27.7456C10.0616 27.7908 10.1327 27.8583 10.1824 27.9409C10.232 28.0235 10.2583 28.118 10.2583 28.2144H10.2586ZM8.59655 28.215L6.10971 26.8916V29.5396L8.59655 28.215ZM15.2558 12.8117V20.3355C15.2558 20.4764 15.1999 20.6116 15.1002 20.7112C15.0006 20.8108 14.8655 20.8668 14.7246 20.8668H6.18455C6.04365 20.8668 5.90852 20.8108 5.8089 20.7112C5.70927 20.6116 5.6533 20.4764 5.6533 20.3355V12.8117C5.6533 12.6708 5.70927 12.5357 5.8089 12.4361C5.90852 12.3364 6.04365 12.2805 6.18455 12.2805H14.7244C14.7942 12.2804 14.8633 12.2942 14.9278 12.3208C14.9922 12.3475 15.0508 12.3867 15.1002 12.436C15.1495 12.4853 15.1887 12.5439 15.2154 12.6084C15.2421 12.6728 15.2558 12.7419 15.2558 12.8117ZM6.71599 13.343V18.9747L8.57398 16.9577C8.62299 16.9045 8.68234 16.8619 8.7484 16.8325C8.81447 16.803 8.88584 16.7874 8.95816 16.7865C9.03048 16.7856 9.10222 16.7995 9.16898 16.8273C9.23574 16.8552 9.29612 16.8963 9.34641 16.9483L9.93378 17.5553L11.8416 15.4839C11.8906 15.4307 11.95 15.3881 12.0161 15.3586C12.0821 15.3292 12.1535 15.3135 12.2258 15.3126C12.2982 15.3117 12.3699 15.3256 12.4367 15.3534C12.5034 15.3813 12.5638 15.4224 12.6141 15.4744L14.1933 17.106V13.343H6.71599ZM8.97434 18.0917L7.39646 19.804H10.6309L8.97434 18.0917ZM14.1939 19.804V18.6341L12.242 16.6179L10.6739 18.3204L12.1093 19.804H14.1939ZM8.05567 15.1796C8.05567 14.9055 8.13695 14.6376 8.28923 14.4097C8.44151 14.1818 8.65796 14.0042 8.91119 13.8993C9.16442 13.7944 9.44307 13.767 9.71189 13.8204C9.98072 13.8739 10.2277 14.0059 10.4215 14.1997C10.6153 14.3935 10.7473 14.6405 10.8007 14.9093C10.8542 15.1781 10.8267 15.4568 10.7218 15.71C10.6169 15.9632 10.4393 16.1797 10.2114 16.3319C9.98348 16.4842 9.71553 16.5655 9.44144 16.5655C9.07394 16.5652 8.72156 16.4191 8.46166 16.1593C8.20175 15.8995 8.05555 15.5471 8.05514 15.1796H8.05567ZM9.11817 15.1796C9.11816 15.2436 9.13712 15.3061 9.17264 15.3593C9.20816 15.4125 9.25866 15.4539 9.31774 15.4784C9.37683 15.5029 9.44184 15.5093 9.50457 15.4968C9.5673 15.4843 9.62491 15.4535 9.67014 15.4083C9.71536 15.3631 9.74616 15.3055 9.75863 15.2428C9.7711 15.18 9.76469 15.115 9.74021 15.0559C9.71573 14.9968 9.67428 14.9463 9.6211 14.9108C9.56792 14.8753 9.50539 14.8564 9.44144 14.8564C9.35565 14.8563 9.27335 14.8904 9.21263 14.951C9.15191 15.0116 9.11775 15.0938 9.11764 15.1796H9.11817ZM34.2548 21.0225L31.5853 25.6449V32.7305C31.5849 33.0455 31.4596 33.3475 31.2369 33.5702C31.0141 33.793 30.7121 33.9183 30.3971 33.9186H18.2595C17.9445 33.9183 17.6425 33.793 17.4197 33.5702C17.197 33.3475 17.0717 33.0455 17.0713 32.7305V30.9613H12.2303C11.8482 31.6576 11.3249 32.2664 10.6939 32.7486C10.0628 33.2308 9.338 33.5759 8.56583 33.7616C7.79367 33.9474 6.9912 33.9698 6.20988 33.8274C5.42856 33.6849 4.68561 33.3808 4.02867 32.9345C3.37172 32.4883 2.81527 31.9096 2.39498 31.2357C1.97469 30.5619 1.69983 29.8076 1.58802 29.0213C1.47622 28.235 1.52993 27.4341 1.74572 26.6697C1.96151 25.9054 2.33462 25.1946 2.84112 24.5829V6.82599C2.84169 6.35228 3.03012 5.89814 3.36509 5.56318C3.70006 5.22822 4.15421 5.03981 4.62792 5.03926H18.4624V3.611C18.4629 3.20609 18.6239 2.8179 18.9103 2.53162C19.1966 2.24534 19.5848 2.08435 19.9897 2.08398H30.4606C30.8656 2.08437 31.2538 2.24541 31.5402 2.53176C31.8265 2.81811 31.9876 3.20637 31.988 3.61133V10.6546C31.988 10.882 31.9371 11.1065 31.8391 11.3118C31.741 11.517 31.5983 11.6976 31.4214 11.8405V19.0178L31.4322 19.0287C31.4971 19.0948 31.5435 19.1766 31.567 19.2661C31.8108 18.9357 32.1718 18.711 32.5759 18.6382C32.9801 18.5655 33.3968 18.6501 33.7405 18.8747C34.0843 19.0994 34.329 19.447 34.4246 19.8464C34.5202 20.2458 34.4594 20.6666 34.2546 21.0225H34.2548ZM27.5796 29.3671L28.2757 28.7884L27.7326 28.4746L27.5796 29.3671ZM31.631 23.4404L30.6862 22.8954L28.0635 27.4387L29.007 27.9839L31.631 23.4404ZM32.1622 22.5203L32.3565 22.1839L31.4117 21.6386L31.2174 21.9751L32.1622 22.5203ZM28.2173 18.7447C28.2178 18.7779 28.2312 18.8096 28.2547 18.8331C28.2781 18.8566 28.3098 18.87 28.343 18.8704H29.7841L28.2173 17.2811V18.7447ZM19.5248 10.6546C19.5248 10.7779 19.5737 10.8961 19.6609 10.9833C19.7481 11.0704 19.8663 11.1194 19.9896 11.1194H20.9815C21.1224 11.1194 21.2575 11.1754 21.3572 11.275C21.4568 11.3746 21.5128 11.5098 21.5128 11.6507V12.7132L22.9512 11.2747C23.0005 11.2253 23.0591 11.1862 23.1236 11.1595C23.188 11.1328 23.2571 11.1191 23.3269 11.1191H30.4606C30.5839 11.1191 30.7021 11.0701 30.7893 10.9829C30.8765 10.8958 30.9255 10.7775 30.9255 10.6542V3.611C30.9254 3.48777 30.8764 3.36962 30.7892 3.28252C30.702 3.19541 30.5838 3.14648 30.4606 3.14648H19.9894C19.8662 3.14648 19.748 3.19541 19.6608 3.28252C19.5737 3.36962 19.5247 3.48777 19.5246 3.611L19.5248 10.6546ZM3.90356 6.82599V9.46829H11.166L11.9741 8.24914C12.0226 8.17605 12.0884 8.11608 12.1656 8.0746C12.2429 8.03312 12.3292 8.01141 12.4169 8.01141H18.4624V6.10176H4.62792C4.43589 6.10195 4.25178 6.17832 4.11598 6.31409C3.98018 6.44986 3.90379 6.63396 3.90356 6.82599ZM11.8743 28.2146C11.8741 27.2968 11.6018 26.3997 11.0917 25.6367C10.5817 24.8736 9.85682 24.279 9.00883 23.928C8.16083 23.5769 7.22778 23.4852 6.32766 23.6645C5.42755 23.8437 4.6008 24.2858 3.95196 24.9349C3.30312 25.584 2.86133 26.411 2.68247 27.3112C2.50361 28.2114 2.5957 29.1444 2.9471 29.9922C3.2985 30.8401 3.89343 31.5647 4.65665 32.0744C5.41987 32.5841 6.31711 32.8561 7.23489 32.8559C8.46525 32.8545 9.64478 32.365 10.5146 31.4948C11.3844 30.6247 11.8734 29.4449 11.8743 28.2146ZM17.0713 29.8988V16.6422C17.0717 16.3272 17.197 16.0252 17.4197 15.8024C17.6425 15.5797 17.9445 15.4544 18.2595 15.454H27.6861C27.7565 15.454 27.8263 15.468 27.8913 15.4952C27.9563 15.5224 28.0152 15.5622 28.0646 15.6124L30.3583 17.9398V12.1816H23.5467L21.357 14.3713C21.2828 14.4457 21.1881 14.4963 21.085 14.5168C20.982 14.5373 20.8751 14.5268 20.778 14.4866C20.6809 14.4464 20.598 14.3783 20.5396 14.2909C20.4812 14.2035 20.4501 14.1008 20.4501 13.9957V12.1816H19.9894C19.5844 12.1812 19.1962 12.0202 18.9098 11.7338C18.6234 11.4475 18.4624 11.0592 18.4621 10.6542V9.07377H12.7021L11.894 10.2931C11.8456 10.3662 11.7798 10.4261 11.7025 10.4676C11.6253 10.5091 11.5389 10.5308 11.4512 10.5308H3.90356V23.5906C4.87308 22.8921 6.03757 22.5159 7.23249 22.5152C8.42741 22.5145 9.59235 22.8892 10.5627 23.5865C11.5331 24.2838 12.2599 25.2684 12.6403 26.4011C13.0207 27.5339 13.0356 28.7575 12.6829 29.8992L17.0713 29.8988ZM30.5223 27.4847L29.6614 28.9753C29.63 29.0297 29.5893 29.0781 29.541 29.1182L27.1523 31.1037C27.0688 31.1731 26.9661 31.2153 26.8579 31.2245C26.7497 31.2338 26.6413 31.2096 26.5472 31.1554C26.4532 31.1011 26.378 31.0193 26.3318 30.921C26.2857 30.8228 26.2707 30.7127 26.289 30.6057L26.8142 27.5431C26.8249 27.4813 26.8464 27.4218 26.8777 27.3674L30.5222 21.0541V19.9327H28.343C28.0281 19.9324 27.7261 19.8071 27.5033 19.5844C27.2806 19.3617 27.1552 19.0597 27.1548 18.7447V16.5165H18.2595C18.2263 16.517 18.1946 16.5304 18.1711 16.5538C18.1477 16.5773 18.1343 16.609 18.1338 16.6422V32.7303C18.1343 32.7635 18.1477 32.7952 18.1711 32.8186C18.1946 32.8421 18.2263 32.8555 18.2595 32.8559H30.3967C30.4299 32.8555 30.4616 32.8421 30.485 32.8186C30.5085 32.7952 30.5219 32.7635 30.5223 32.7303V27.4847ZM33.3869 20.0781C33.3586 19.9744 33.3003 19.8813 33.2194 19.8106C33.1384 19.7399 33.0384 19.6946 32.9318 19.6805C32.8252 19.6664 32.7169 19.6841 32.6203 19.7313C32.5237 19.7785 32.4433 19.8532 32.389 19.946L31.9429 20.7187L32.8879 21.2642L33.3341 20.4914C33.3698 20.4294 33.3929 20.361 33.4019 20.29C33.411 20.2191 33.4059 20.147 33.3869 20.0781ZM19.8877 29.0769H21.4727C21.6136 29.0769 21.7487 29.0209 21.8483 28.9213C21.9479 28.8216 22.0039 28.6865 22.0039 28.5456C22.0039 28.4047 21.9479 28.2696 21.8483 28.17C21.7487 28.0703 21.6136 28.0144 21.4727 28.0144H19.8877C19.7468 28.0144 19.6117 28.0703 19.5121 28.17C19.4125 28.2696 19.3565 28.4047 19.3565 28.5456C19.3565 28.6865 19.4125 28.8216 19.5121 28.9213C19.6117 29.0209 19.7468 29.0769 19.8877 29.0769ZM25.318 30.1643H19.8877C19.7468 30.1643 19.6117 30.2202 19.5121 30.3199C19.4125 30.4195 19.3565 30.5546 19.3565 30.6955C19.3565 30.8364 19.4125 30.9715 19.5121 31.0712C19.6117 31.1708 19.7468 31.2268 19.8877 31.2268H25.318C25.4589 31.2268 25.5941 31.1708 25.6937 31.0712C25.7933 30.9715 25.8493 30.8364 25.8493 30.6955C25.8493 30.5546 25.7933 30.4195 25.6937 30.3199C25.5941 30.2202 25.4589 30.1643 25.318 30.1643ZM25.318 28.0146H23.291C23.1501 28.0146 23.015 28.0706 22.9153 28.1702C22.8157 28.2699 22.7597 28.405 22.7597 28.5459C22.7597 28.6868 22.8157 28.8219 22.9153 28.9215C23.015 29.0212 23.1501 29.0771 23.291 29.0771H25.318C25.4589 29.0771 25.5941 29.0212 25.6937 28.9215C25.7933 28.8219 25.8493 28.6868 25.8493 28.5459C25.8493 28.405 25.7933 28.2699 25.6937 28.1702C25.5941 28.0706 25.4589 28.0146 25.318 28.0146ZM19.8876 24.7761H21.4725C21.6134 24.7761 21.7485 24.7202 21.8482 24.6205C21.9478 24.5209 22.0038 24.3858 22.0038 24.2449C22.0038 24.104 21.9478 23.9689 21.8482 23.8692C21.7485 23.7696 21.6134 23.7136 21.4725 23.7136H19.8877C19.7468 23.7136 19.6117 23.7696 19.5121 23.8692C19.4125 23.9689 19.3565 24.104 19.3565 24.2449C19.3565 24.3858 19.4125 24.5209 19.5121 24.6205C19.6117 24.7202 19.7468 24.7761 19.8877 24.7761H19.8876ZM25.318 25.8632H19.8877C19.7468 25.8632 19.6117 25.9192 19.5121 26.0188C19.4125 26.1184 19.3565 26.2536 19.3565 26.3944C19.3565 26.5353 19.4125 26.6705 19.5121 26.7701C19.6117 26.8697 19.7468 26.9257 19.8877 26.9257H25.318C25.4589 26.9257 25.5941 26.8697 25.6937 26.7701C25.7933 26.6705 25.8493 26.5353 25.8493 26.3944C25.8493 26.2536 25.7933 26.1184 25.6937 26.0188C25.5941 25.9192 25.4589 25.8632 25.318 25.8632ZM27.2493 23.7136H23.2909C23.15 23.7136 23.0148 23.7696 22.9152 23.8692C22.8156 23.9689 22.7596 24.104 22.7596 24.2449C22.7596 24.3858 22.8156 24.5209 22.9152 24.6205C23.0148 24.7202 23.15 24.7761 23.2909 24.7761H27.2493C27.3902 24.7761 27.5254 24.7202 27.625 24.6205C27.7246 24.5209 27.7806 24.3858 27.7806 24.2449C27.7806 24.104 27.7246 23.9689 27.625 23.8692C27.5254 23.7696 27.3902 23.7136 27.2493 23.7136ZM19.8876 22.6246H28.1849C28.3258 22.6246 28.461 22.5686 28.5606 22.469C28.6602 22.3693 28.7162 22.2342 28.7162 22.0933C28.7162 21.9524 28.6602 21.8173 28.5606 21.7177C28.461 21.618 28.3258 21.5621 28.1849 21.5621H19.8877C19.7468 21.5621 19.6117 21.618 19.5121 21.7177C19.4125 21.8173 19.3565 21.9524 19.3565 22.0933C19.3565 22.2342 19.4125 22.3693 19.5121 22.469C19.6117 22.5686 19.7468 22.6246 19.8877 22.6246H19.8876ZM19.8876 20.475H21.9149C22.0558 20.475 22.1909 20.419 22.2905 20.3194C22.3901 20.2198 22.4461 20.0846 22.4461 19.9437C22.4461 19.8028 22.3901 19.6677 22.2905 19.5681C22.1909 19.4685 22.0558 19.4125 21.9149 19.4125H19.8877C19.7468 19.4125 19.6117 19.4685 19.5121 19.5681C19.4125 19.6677 19.3565 19.8028 19.3565 19.9437C19.3565 20.0846 19.4125 20.2198 19.5121 20.3194C19.6117 20.419 19.7468 20.475 19.8877 20.475H19.8876ZM21.7131 7.59776V6.01663C21.7131 5.4808 22.1744 5.04491 22.7413 5.04491H25.3426C26.2125 5.04491 26.9781 4.86448 27.6743 4.49546V4.22466C27.6743 4.08376 27.7303 3.94863 27.8299 3.84901C27.9296 3.74938 28.0647 3.69341 28.2056 3.69341C28.3465 3.69341 28.4816 3.74938 28.5812 3.84901C28.6809 3.94863 28.7368 4.08376 28.7368 4.22466V9.38781C28.7368 9.5287 28.6809 9.66383 28.5812 9.76346C28.4816 9.86309 28.3465 9.91906 28.2056 9.91906C28.0647 9.91906 27.9296 9.86309 27.8299 9.76346C27.7303 9.66383 27.6743 9.5287 27.6743 9.38781V9.11886C26.9781 8.74984 26.2124 8.56942 25.3426 8.56942H25.2471V10.0391C25.2471 10.18 25.1912 10.3151 25.0915 10.4147C24.9919 10.5143 24.8568 10.5703 24.7159 10.5703H23.6467C23.5241 10.5703 23.4052 10.5279 23.3103 10.4502C23.2153 10.3725 23.1502 10.2643 23.126 10.1441L22.8084 8.56942H22.7415C22.1744 8.56942 21.7131 8.13353 21.7131 7.59776ZM24.1846 8.56942H23.8924L24.0817 9.5078H24.1848L24.1846 8.56942ZM25.3426 6.10741H25.2471V7.50692H25.3426C26.1412 7.50033 26.9334 7.65031 27.6743 7.94839V5.66594C26.9334 5.96402 26.1412 6.114 25.3426 6.10741ZM22.7756 7.50625L24.1846 7.50665V6.10741H22.7756V7.50625Z" fill="black"/>
</svg>
