<svg width="36" height="36" viewBox="0 0 36 36" fill="none" xmlns="http://www.w3.org/2000/svg">
<path d="M25.2953 33.3001H13.9893C13.689 33.3001 13.4456 33.0566 13.4456 32.7563V28.2789H10.4957C8.45215 28.2789 6.76371 26.8247 6.73182 25.0373C6.71822 24.2721 6.65008 23.5086 6.52925 22.7682C6.41963 22.0958 6.23719 21.4118 5.98599 20.7302L5.67653 20.7234C5.1957 20.7236 4.74928 20.4573 4.52243 20.0285C4.30748 19.6222 4.32917 19.1353 4.57703 18.7494L5.949 16.1519C6.21998 15.639 6.36251 15.053 6.36122 14.4571C6.36101 11.2532 7.87823 8.33631 10.5239 6.43673C10.7677 6.26217 11.1073 6.31759 11.2828 6.56137C11.4577 6.80515 11.4021 7.14502 11.1581 7.31998C8.80065 9.01284 7.44847 11.6075 7.44847 14.4392C7.45037 15.2278 7.26433 15.9903 6.91073 16.6599L5.52631 19.2805C5.51673 19.2984 5.50632 19.3157 5.4949 19.3325C5.44349 19.4079 5.46022 19.4763 5.48361 19.5201C5.50204 19.5551 5.55902 19.6362 5.68815 19.6362L6.37325 19.6507C6.59092 19.6552 6.78486 19.7892 6.86625 19.9914C7.21428 20.8568 7.46214 21.7322 7.60256 22.5933C7.73169 23.3848 7.80452 24.2008 7.81921 25.018C7.84001 26.1963 9.06565 27.1916 10.4957 27.1916H13.9893C14.2896 27.1916 14.533 27.4349 14.533 27.7353V32.2127H24.427C24.12 31.5057 23.8598 30.7084 23.651 29.8323C23.1583 27.7645 23.1594 25.5976 23.654 23.3918C23.7196 23.099 24.0091 22.9144 24.3035 22.9802C24.5966 23.0459 24.7807 23.3368 24.7151 23.6297C24.2568 25.6728 24.2547 27.6748 24.7087 29.5802C24.9789 30.7131 25.337 31.6944 25.773 32.4966C25.8645 32.6653 25.8607 32.8694 25.7626 33.0342C25.6646 33.1989 25.487 33.3001 25.2953 33.3001Z" fill="#0D0D0D"/>
<path d="M14.822 8.83611C13.1302 8.83611 11.7539 7.45986 11.7539 5.76822C11.7539 4.07638 13.1302 2.7002 14.822 2.7002C16.3282 2.7002 17.5842 3.79119 17.8416 5.22456H26.1982C26.4985 5.22456 26.7419 5.468 26.7419 5.76829C26.7419 6.06858 26.4985 6.31202 26.1982 6.31202H17.3461C17.0458 6.31202 16.8024 6.06864 16.8024 5.76829C16.8024 4.67628 15.914 3.78765 14.8219 3.78765C13.7298 3.78765 12.8412 4.67628 12.8412 5.76829C12.8412 6.86037 13.7298 7.74879 14.8219 7.74879C15.1222 7.74879 15.3657 7.99216 15.3657 8.29251C15.3657 8.59273 15.1223 8.83611 14.822 8.83611Z" fill="#0D0D0D"/>
<path d="M28.8448 22.0337H14.8211C14.5207 22.0337 14.2773 21.7903 14.2773 21.49V8.29178C14.2773 7.99149 14.5207 7.74805 14.8211 7.74805C15.1214 7.74805 15.3648 7.99142 15.3648 8.29178V20.9463H28.3011V20.0014C28.3011 19.7012 28.5445 19.4577 28.8448 19.4577C29.1451 19.4577 29.3886 19.7011 29.3886 20.0014V21.49C29.3885 21.7903 29.1451 22.0337 28.8448 22.0337Z" fill="#0D0D0D"/>
<path d="M28.8448 6.97678C28.5444 6.97678 28.3011 6.73341 28.3011 6.43306V5.76829C28.3011 4.67628 27.4125 3.78765 26.3204 3.78765H14.8211C14.5207 3.78765 14.2773 3.54428 14.2773 3.24392C14.2773 2.94357 14.5207 2.7002 14.8211 2.7002H26.3205C28.0123 2.7002 29.3885 4.07645 29.3885 5.76822V6.43299C29.3885 6.73341 29.1451 6.97678 28.8448 6.97678Z" fill="#0D0D0D"/>
<path d="M27.724 15.2774C27.3918 15.2774 27.0597 15.1742 26.7759 14.968C26.6859 14.9028 26.5791 14.868 26.4675 14.868C25.7669 14.868 25.1508 14.4202 24.9339 13.7541C24.8995 13.6476 24.8334 13.5569 24.7433 13.4913C24.1766 13.0795 23.9413 12.3553 24.1575 11.6888C24.1921 11.5825 24.1921 11.4703 24.1577 11.3643C23.9413 10.6979 24.1766 9.97346 24.7431 9.56165C24.8337 9.49582 24.8996 9.40511 24.9339 9.29917C25.1508 8.6325 25.7669 8.18478 26.4675 8.18478C26.5793 8.18478 26.6859 8.15017 26.7761 8.08455C27.3427 7.67234 28.1042 7.67234 28.6716 8.08455C28.7619 8.15017 28.8686 8.18478 28.9802 8.18478C29.6808 8.18478 30.297 8.6325 30.5138 9.29876C30.5482 9.40511 30.6141 9.49582 30.7042 9.56124C31.2712 9.97346 31.5065 10.6979 31.2903 11.364C31.2557 11.4703 31.2557 11.5825 31.2901 11.6883C31.5066 12.3554 31.2713 13.0796 30.7046 13.4914C30.6144 13.5571 30.5483 13.6478 30.5139 13.754C30.297 14.4205 29.6809 14.8681 28.9803 14.8681C28.8688 14.8681 28.7619 14.9029 28.6712 14.9686C28.3881 15.1744 28.0562 15.2774 27.724 15.2774ZM27.724 8.86363C27.6157 8.86363 27.5075 8.89695 27.4154 8.96413C27.1382 9.16568 26.8103 9.27204 26.4675 9.27204C26.2395 9.27204 26.0388 9.41796 25.9682 9.63495C25.8625 9.96081 25.6596 10.2399 25.3821 10.4412C25.198 10.5752 25.1213 10.8111 25.1918 11.0282C25.2977 11.354 25.2977 11.6989 25.1916 12.0249C25.1213 12.2415 25.198 12.4775 25.3825 12.6114C25.6598 12.813 25.8625 13.0919 25.9682 13.4177C26.0387 13.6345 26.2395 13.7804 26.4675 13.7804C26.8099 13.7804 27.1376 13.8867 27.415 14.0881C27.6002 14.2228 27.8479 14.2223 28.0322 14.0885C28.3102 13.8867 28.6379 13.7804 28.9803 13.7804C29.2084 13.7804 29.4091 13.6345 29.4796 13.4174C29.5853 13.0918 29.788 12.8129 30.0654 12.6114C30.2499 12.4774 30.3266 12.2414 30.256 12.0241C30.1501 11.6988 30.1501 11.3539 30.2562 11.0277C30.3265 10.811 30.2498 10.5751 30.0651 10.4406C29.7881 10.2397 29.5853 9.96067 29.4795 9.63448C29.409 9.41783 29.2083 9.2719 28.9802 9.2719C28.6374 9.2719 28.3095 9.16555 28.0324 8.964C27.9402 8.89702 27.832 8.86363 27.724 8.86363Z" fill="#0D0D0D"/>
<path d="M31.0811 19.3697C31.0265 19.3697 30.9715 19.3614 30.918 19.3446L27.7246 18.3401L24.5311 19.3446C24.3476 19.402 24.1467 19.3589 24.0033 19.2293C23.8603 19.1 23.7964 18.9046 23.8355 18.7158L24.9193 13.4757C24.9798 13.1815 25.2676 12.9923 25.562 13.0535C25.8559 13.1143 26.0449 13.402 25.9842 13.6961L25.0879 18.0296L27.5615 17.2515C27.6677 17.2179 27.7816 17.2179 27.8877 17.2515L30.3611 18.0296L29.4649 13.6961C29.4042 13.402 29.5932 13.1142 29.8871 13.0535C30.1813 12.9923 30.4688 13.1815 30.5298 13.4757L31.6136 18.7158C31.6527 18.9048 31.5887 19.1 31.4458 19.2293C31.3443 19.3211 31.2139 19.3697 31.0811 19.3697Z" fill="#0D0D0D"/>
<path d="M27.7234 18.3137C27.4231 18.3137 27.1797 18.0703 27.1797 17.77V17.0954C27.1797 16.7951 27.4231 16.5518 27.7234 16.5518C28.0237 16.5518 28.2671 16.7951 28.2671 17.0954V17.77C28.2671 18.0703 28.0237 18.3137 27.7234 18.3137Z" fill="#0D0D0D"/>
<path d="M27.7234 15.9322C27.4231 15.9322 27.1797 15.6888 27.1797 15.3885V14.7322C27.1797 14.4319 27.4231 14.1885 27.7234 14.1885C28.0237 14.1885 28.2671 14.4318 28.2671 14.7322V15.3885C28.2671 15.6888 28.0237 15.9322 27.7234 15.9322Z" fill="#0D0D0D"/>
<path d="M27.7244 13.3016C27.5658 13.3016 27.4141 13.2321 27.3105 13.1105L26.1415 11.7378C25.9468 11.5091 25.9744 11.1661 26.2029 10.9713C26.4314 10.7766 26.7747 10.804 26.9693 11.0327L27.6585 11.8421L28.5826 10.3752C28.7428 10.121 29.0788 10.0447 29.3323 10.2049C29.5865 10.3648 29.6628 10.7006 29.5026 10.9546L28.1844 13.0476C28.0922 13.1942 27.9359 13.2878 27.7632 13.3002C27.7503 13.3012 27.7374 13.3016 27.7244 13.3016Z" fill="#0D0D0D"/>
<path d="M17.3445 20.3473C17.0442 20.3473 16.8008 20.104 16.8008 19.8036V5.76834C16.8008 5.46805 17.0442 5.22461 17.3445 5.22461C17.6449 5.22461 17.8882 5.46805 17.8882 5.76834V19.8036C17.8882 20.104 17.6449 20.3473 17.3445 20.3473Z" fill="#0D0D0D"/>
<path d="M23.3522 8.8355H17.3445C17.0442 8.8355 16.8008 8.59213 16.8008 8.29178C16.8008 7.99149 17.0442 7.74805 17.3445 7.74805H23.3522C23.6525 7.74805 23.8959 7.99142 23.8959 8.29178C23.8959 8.59213 23.6525 8.8355 23.3522 8.8355Z" fill="#0D0D0D"/>
<path d="M22.6717 11.3794H17.3445C17.0442 11.3794 16.8008 11.136 16.8008 10.8357C16.8008 10.5354 17.0442 10.292 17.3445 10.292H22.6717C22.9721 10.292 23.2154 10.5354 23.2154 10.8357C23.2154 11.136 22.972 11.3794 22.6717 11.3794Z" fill="#0D0D0D"/>
<path d="M22.992 13.9234H17.3445C17.0442 13.9234 16.8008 13.68 16.8008 13.3797C16.8008 13.0793 17.0442 12.8359 17.3445 12.8359H22.992C23.2923 12.8359 23.5357 13.0793 23.5357 13.3797C23.5357 13.68 23.2923 13.9234 22.992 13.9234Z" fill="#0D0D0D"/>
<path d="M22.6717 16.4664H17.3445C17.0442 16.4664 16.8008 16.2229 16.8008 15.9226C16.8008 15.6223 17.0442 15.3789 17.3445 15.3789H22.6717C22.9721 15.3789 23.2154 15.6223 23.2154 15.9226C23.2154 16.2229 22.972 16.4664 22.6717 16.4664Z" fill="#0D0D0D"/>
<path d="M19.2476 28.2789H13.989C13.6888 28.2789 13.4453 28.0355 13.4453 27.7351C13.4453 27.4348 13.6887 27.1914 13.989 27.1914H19.2476C19.5479 27.1914 19.7913 27.4348 19.7913 27.7351C19.7913 28.0355 19.5479 28.2789 19.2476 28.2789Z" fill="#0D0D0D"/>
</svg>
