<svg width="36" height="36" viewBox="0 0 36 36" fill="none" xmlns="http://www.w3.org/2000/svg">
<path d="M27.0312 22.25C27.1721 22.25 27.3073 22.194 27.4069 22.0944C27.5065 21.9948 27.5625 21.8596 27.5625 21.7188V18C27.5625 17.8591 27.5065 17.724 27.4069 17.6243C27.3073 17.5247 27.1721 17.4688 27.0312 17.4688C26.8904 17.4688 26.7552 17.5247 26.6556 17.6243C26.556 17.724 26.5 17.8591 26.5 18V21.7188C26.5 21.8596 26.556 21.9948 26.6556 22.0944C26.7552 22.194 26.8904 22.25 27.0312 22.25Z" fill="#0D0D0D"/>
<path d="M18 15.8374C19.1916 15.8374 20.125 15.0852 20.125 14.1247V11.7611C20.125 10.8006 19.1916 10.0479 18 10.0479C16.8084 10.0479 15.875 10.8006 15.875 11.7611V14.1247C15.875 15.0852 16.8084 15.8374 18 15.8374ZM16.9375 11.7611C16.9375 11.4535 17.3737 11.1104 18 11.1104C18.6263 11.1104 19.0625 11.4535 19.0625 11.7611V14.1247C19.0625 14.4323 18.6263 14.7749 18 14.7749C17.3737 14.7749 16.9375 14.4323 16.9375 14.1247V11.7611Z" fill="#0D0D0D"/>
<path d="M27.0828 27.0317C27.0828 26.8908 27.0268 26.7557 26.9272 26.6561C26.8276 26.5565 26.6925 26.5005 26.5516 26.5005H24.9047V21.188C24.9047 20.7653 24.7368 20.3599 24.4379 20.061C24.139 19.7621 23.7336 19.5942 23.3109 19.5942H22.7266C22.232 18.7837 21.5374 18.114 20.7094 17.6492C19.8815 17.1845 18.9479 16.9404 17.9984 16.9404C17.049 16.9404 16.1154 17.1845 15.2874 17.6492C14.4595 18.114 13.7649 18.7837 13.2703 19.5942H12.6859C12.2632 19.5942 11.8579 19.7621 11.559 20.061C11.2601 20.3599 11.0922 20.7653 11.0922 21.188V26.5005H9.44531C9.30442 26.5005 9.16929 26.5565 9.06966 26.6561C8.97003 26.7557 8.91406 26.8908 8.91406 27.0317C8.91406 28.4964 9.94628 29.688 11.2149 29.688H24.783C26.049 29.688 27.0828 28.4964 27.0828 27.0317ZM17.9984 18.0005C18.6477 18.007 19.2881 18.1526 19.8763 18.4275C20.4646 18.7025 20.987 19.1003 21.4085 19.5942H14.5883C15.0098 19.1003 15.5323 18.7025 16.1206 18.4275C16.7088 18.1526 17.3491 18.007 17.9984 18.0005ZM12.1547 21.188C12.1547 21.0471 12.2107 20.912 12.3103 20.8123C12.4099 20.7127 12.545 20.6567 12.6859 20.6567H23.3109C23.4518 20.6567 23.587 20.7127 23.6866 20.8123C23.7862 20.912 23.8422 21.0471 23.8422 21.188V26.5005H12.1547V21.188ZM10.0446 27.563H25.9481C25.896 27.8434 25.7536 28.0991 25.5425 28.291C25.3315 28.4828 25.0634 28.6003 24.7793 28.6255H11.2123C10.9284 28.6 10.6606 28.4824 10.4497 28.2906C10.2389 28.0987 10.0966 27.8432 10.0446 27.563Z" fill="#0D0D0D"/>
<path d="M18 24.375C18.2934 24.375 18.5312 24.1372 18.5312 23.8438C18.5312 23.5503 18.2934 23.3125 18 23.3125C17.7066 23.3125 17.4688 23.5503 17.4688 23.8438C17.4688 24.1372 17.7066 24.375 18 24.375Z" fill="#0D0D0D"/>
<path d="M3.65625 33.9376H32.3438C32.7664 33.9376 33.1718 33.7697 33.4707 33.4708C33.7696 33.1719 33.9375 32.7665 33.9375 32.3438C33.9375 31.9212 33.7696 31.5158 33.4707 31.2169C33.1718 30.918 32.7664 30.7501 32.3438 30.7501H29.6875V17.9576L31.158 19.4281C31.466 19.7199 31.8758 19.8799 32.3 19.8741C32.7242 19.8683 33.1294 19.6971 33.4294 19.397C33.7293 19.097 33.9003 18.6917 33.9059 18.2674C33.9115 17.8432 33.7513 17.4335 33.4594 17.1257L29.6875 13.3283V6.84384C29.6875 6.70294 29.6315 6.56782 29.5319 6.46819C29.4323 6.36856 29.2971 6.31259 29.1562 6.31259H26.5C26.3591 6.31259 26.224 6.36856 26.1243 6.46819C26.0247 6.56782 25.9688 6.70294 25.9688 6.84384V9.58615L18.7661 2.33831C18.56 2.14064 18.2855 2.03027 18 2.03027C17.7145 2.03027 17.44 2.14064 17.2339 2.33831L2.54063 17.1251C2.23798 17.431 2.06873 17.8443 2.06985 18.2746C2.07098 18.7049 2.24239 19.1172 2.54663 19.4216C2.85086 19.7259 3.26319 19.8974 3.6935 19.8986C4.1238 19.8998 4.5371 19.7307 4.84306 19.4281L6.3125 17.9602V30.7501H3.65625C3.23356 30.7501 2.82818 30.918 2.5293 31.2169C2.23041 31.5158 2.0625 31.9212 2.0625 32.3438C2.0625 32.7665 2.23041 33.1719 2.5293 33.4708C2.82818 33.7697 3.23356 33.9376 3.65625 33.9376ZM27.0312 10.655V7.37509H28.625V12.2589L27.0312 10.655ZM4.09134 18.6758C4.04 18.7334 3.97743 18.7798 3.90749 18.8123C3.83755 18.8448 3.7617 18.8626 3.68462 18.8647C3.60753 18.8668 3.53083 18.8531 3.45922 18.8245C3.38761 18.7959 3.32261 18.7529 3.26821 18.6983C3.2138 18.6436 3.17115 18.5784 3.14286 18.5067C3.11457 18.4349 3.10125 18.3582 3.10371 18.2811C3.10617 18.204 3.12436 18.1283 3.15716 18.0585C3.18997 17.9887 3.23669 17.9263 3.29447 17.8752L18.0122 3.08737L32.7092 17.8763C32.763 17.9286 32.8057 17.991 32.8351 18.0599C32.8645 18.1289 32.8799 18.203 32.8804 18.2779C32.8809 18.3529 32.8665 18.4272 32.8381 18.4965C32.8096 18.5658 32.7677 18.6288 32.7147 18.6818C32.6617 18.7348 32.5987 18.7767 32.5294 18.8052C32.46 18.8336 32.3857 18.848 32.3108 18.8475C32.2359 18.847 32.1618 18.8316 32.0928 18.8022C32.0239 18.7729 31.9615 18.7301 31.9092 18.6764L18.7639 5.53059C18.5606 5.32961 18.2862 5.21689 18.0003 5.21689C17.7143 5.21689 17.44 5.32961 17.2366 5.53059L4.09134 18.6758ZM3.65625 31.8126H15.7576C15.8985 31.8126 16.0336 31.7566 16.1332 31.657C16.2329 31.5574 16.2888 31.4222 16.2888 31.2813C16.2888 31.1404 16.2329 31.0053 16.1332 30.9057C16.0336 30.8061 15.8985 30.7501 15.7576 30.7501H7.375V17.1501L12.4399 11.8434L18.0122 6.28231L28.625 16.8951V30.7501H20.1362C19.9953 30.7501 19.8601 30.8061 19.7605 30.9057C19.6609 31.0053 19.6049 31.1404 19.6049 31.2813C19.6049 31.4222 19.6609 31.5574 19.7605 31.657C19.8601 31.7566 19.9953 31.8126 20.1362 31.8126H32.3438C32.4846 31.8126 32.6198 31.8686 32.7194 31.9682C32.819 32.0678 32.875 32.2029 32.875 32.3438C32.875 32.4847 32.819 32.6199 32.7194 32.7195C32.6198 32.8191 32.4846 32.8751 32.3438 32.8751H3.65625C3.51535 32.8751 3.38023 32.8191 3.2806 32.7195C3.18097 32.6199 3.125 32.4847 3.125 32.3438C3.125 32.2029 3.18097 32.0678 3.2806 31.9682C3.38023 31.8686 3.51535 31.8126 3.65625 31.8126Z" fill="#0D0D0D"/>
<path d="M27.0312 24.375C27.3247 24.375 27.5625 24.1372 27.5625 23.8438C27.5625 23.5503 27.3247 23.3125 27.0312 23.3125C26.7378 23.3125 26.5 23.5503 26.5 23.8438C26.5 24.1372 26.7378 24.375 27.0312 24.375Z" fill="#0D0D0D"/>
<path d="M18 31.8125C18.2934 31.8125 18.5312 31.5747 18.5312 31.2812C18.5312 30.9878 18.2934 30.75 18 30.75C17.7066 30.75 17.4688 30.9878 17.4688 31.2812C17.4688 31.5747 17.7066 31.8125 18 31.8125Z" fill="#0D0D0D"/>
</svg>
