<svg width="36" height="36" viewBox="0 0 36 36" fill="none" xmlns="http://www.w3.org/2000/svg">
<path d="M4.39896 16.868V17.4346C4.39896 18.058 3.88896 18.568 3.26562 18.568V19.7013C3.88896 19.7013 4.39896 20.2113 4.39896 20.8346V21.4013C4.39896 22.3646 5.13562 23.1013 6.09896 23.1013H7.23229V21.968H6.09896C5.75896 21.968 5.53229 21.7413 5.53229 21.4013V20.3813C5.53229 19.8713 5.30562 19.418 4.96562 19.1346C5.30562 18.7946 5.53229 18.3413 5.53229 17.888V16.868C5.53229 16.528 5.75896 16.3013 6.09896 16.3013H7.23229V15.168H6.09896C5.13562 15.168 4.39896 15.9046 4.39896 16.868Z" fill="#0D0D0D"/>
<path d="M11.2005 17.4346V16.868C11.2005 15.9046 10.4639 15.168 9.50052 15.168H8.36719V16.3013H9.50052C9.84052 16.3013 10.0672 16.528 10.0672 16.868V17.888C10.0672 18.3413 10.2939 18.7946 10.6339 19.1346C10.2939 19.418 10.0672 19.8713 10.0672 20.3813V21.4013C10.0672 21.7413 9.84052 21.968 9.50052 21.968H8.36719V23.1013H9.50052C10.4639 23.1013 11.2005 22.3646 11.2005 21.4013V20.8346C11.2005 20.2113 11.7105 19.7013 12.3339 19.7013V18.568C11.7105 18.568 11.2005 18.058 11.2005 17.4346Z" fill="#0D0D0D"/>
<path d="M14.6 24.8V14.4867C14.6 14.0333 14.43 13.6367 14.09 13.2967L10.8033 10.01C10.4633 9.67 10.0667 9.5 9.61333 9.5H2.7C1.73667 9.5 1 10.2367 1 11.2V24.8C1 25.7633 1.73667 26.5 2.7 26.5H12.9C13.8633 26.5 14.6 25.7633 14.6 24.8ZM10.6333 11.4267L12.6733 13.4667H11.2C10.86 13.4667 10.6333 13.24 10.6333 12.9V11.4267ZM2.13333 24.8V11.2C2.13333 10.86 2.36 10.6333 2.7 10.6333H9.5V12.9C9.5 13.8633 10.2367 14.6 11.2 14.6H13.4667V24.8C13.4667 25.14 13.24 25.3667 12.9 25.3667H2.7C2.36 25.3667 2.13333 25.14 2.13333 24.8Z" fill="#0D0D0D"/>
<path d="M33.3008 9.5H26.5008C25.5374 9.5 24.8008 10.2367 24.8008 11.2V24.8C24.8008 25.7633 25.5374 26.5 26.5008 26.5H33.3008C34.2641 26.5 35.0008 25.7633 35.0008 24.8V11.2C35.0008 10.2367 34.2641 9.5 33.3008 9.5ZM26.5008 10.6333H33.3008C33.6408 10.6333 33.8674 10.86 33.8674 11.2V18.5667H25.9341V11.2C25.9341 10.86 26.1608 10.6333 26.5008 10.6333ZM25.9341 20.8333V19.7H33.8674V20.8333H25.9341ZM33.8674 21.9667V23.1H25.9341V21.9667H33.8674ZM33.3008 25.3667H26.5008C26.1608 25.3667 25.9341 25.14 25.9341 24.8V24.2333H33.8674V24.8C33.8674 25.14 33.6408 25.3667 33.3008 25.3667Z" fill="#0D0D0D"/>
<path d="M27.6331 12.9009C27.946 12.9009 28.1997 12.6472 28.1997 12.3342C28.1997 12.0213 27.946 11.7676 27.6331 11.7676C27.3201 11.7676 27.0664 12.0213 27.0664 12.3342C27.0664 12.6472 27.3201 12.9009 27.6331 12.9009Z" fill="#0D0D0D"/>
<path d="M27.6331 15.1665C27.946 15.1665 28.1997 14.9128 28.1997 14.5999C28.1997 14.2869 27.946 14.0332 27.6331 14.0332C27.3201 14.0332 27.0664 14.2869 27.0664 14.5999C27.0664 14.9128 27.3201 15.1665 27.6331 15.1665Z" fill="#0D0D0D"/>
<path d="M27.6331 17.4341C27.946 17.4341 28.1997 17.1804 28.1997 16.8674C28.1997 16.5545 27.946 16.3008 27.6331 16.3008C27.3201 16.3008 27.0664 16.5545 27.0664 16.8674C27.0664 17.1804 27.3201 17.4341 27.6331 17.4341Z" fill="#0D0D0D"/>
<path d="M17.9989 31.6016C15.8456 31.6016 13.7489 31.0916 11.8789 30.1283L13.2389 28.3716L7.62891 27.6349L9.78224 32.8483L11.1422 31.0349C13.2389 32.1116 15.5622 32.7349 17.9989 32.7349C22.0789 32.7349 26.0456 31.0349 28.8222 28.0316L27.9722 27.2383C25.4222 30.0149 21.7956 31.6016 17.9989 31.6016Z" fill="#0D0D0D"/>
<path d="M17.9991 4.40096C20.1524 4.40096 22.2491 4.91096 24.1191 5.8743L22.7591 7.63096L28.3691 8.36763L26.2158 3.1543L24.8558 4.96763C22.7591 3.8343 20.3791 3.26763 17.9991 3.26763C13.9191 3.26763 9.95245 4.96763 7.17578 7.97096L8.02578 8.7643C10.5758 5.98763 14.2024 4.40096 17.9991 4.40096Z" fill="#0D0D0D"/>
</svg>
